Coordinates
version=1
nRows=8
nColumns=34
inDegrees=yes

Units are S.I. units (second, meters, Newtons, ...)
If the header above contains a line with 'inDegrees', this indicates whether rotational values are in degrees (yes) or radians (no).

endheader
time	pelvis_tilt	pelvis_list	pelvis_rotation	pelvis_tx	pelvis_ty	pelvis_tz	hip_flexion_r	hip_adduction_r	hip_rotation_r	knee_angle_r	ankle_angle_r	subtalar_angle_r	mtp_angle_r	hip_flexion_l	hip_adduction_l	hip_rotation_l	knee_angle_l	ankle_angle_l	subtalar_angle_l	mtp_angle_l	lumbar_extension	lumbar_bending	lumbar_rotation	arm_flex_r	arm_add_r	arm_rot_r	elbow_flex_r	pro_sup_r	arm_flex_l	arm_add_l	arm_rot_l	elbow_flex_l	pro_sup_l
      0.00000000	     -2.02919505	     -3.22402812	    -28.62300820	      1.12753075	      0.97842951	      0.32165416	     15.44794785	     -1.37914028	      0.04130074	     17.86379053	      5.24124071	     -2.48731197	      0.00000000	     12.54297299	      3.77535928	      8.82194044	      6.43158872	     -0.60249257	    -10.12076164	      0.00000000	    -12.29558336	      4.56485465	      9.76588155	      3.08506339	     -8.78249584	     -9.98061073	     27.30682616	    119.74817918	      3.98210284	    -18.52747615	     14.86704054	     50.60355912	    108.76086984
      0.01666670	     -2.02555161	     -3.21998316	    -28.62195230	      1.12753788	      0.97834402	      0.32165223	     15.44693531	     -1.37622712	      0.04081467	     17.86438774	      5.24110511	     -2.48720787	      0.00000000	     12.54399592	      3.77311039	      8.82182503	      6.43159385	     -0.60233814	    -10.12013220	      0.00000000	    -12.29487101	      4.56432076	      9.76638509	      3.08626879	     -8.78452651	     -9.98077669	     27.30694235	    119.74817918	      3.98177551	    -18.52821522	     14.86748211	     50.60323455	    108.76110773
      0.03333330	     -2.00329939	     -3.22813398	    -28.56429593	      1.12718645	      0.97834586	      0.32225592	     15.42865261	     -1.35374443	      0.03253293	     17.88772217	      5.23112501	     -2.48618011	      0.00000000	     12.53668761	      3.74194151	      8.81987512	      6.45183850	     -0.59621982	    -10.10308187	      0.00000000	    -12.26417963	      4.49183036	      9.80224936	      3.15663107	     -8.83064297	     -9.98470779	     27.32368521	    119.74817918	      3.93627802	    -18.49726656	     14.90152886	     50.58736032	    108.76891412
      0.05000000	     -1.60156869	     -3.42364859	    -28.46649746	      1.12687431	      0.97913414	      0.32267416	     14.95405766	     -1.42893293	     -0.48828038	     17.89693653	      4.94501615	     -2.08388507	      0.00000000	     12.49330384	      3.60714374	      6.90929974	      7.30048170	      1.19352529	     -6.86853944	      0.00000000	    -12.71907672	      4.48247713	      9.91284857	      3.37274385	     -9.11585391	     -9.23212350	     27.06493212	    119.74817918	      4.48254939	    -18.74253277	     16.60206057	     49.83578938	    110.31760825
      0.06666670	     -1.46307321	     -3.41326353	    -28.52505550	      1.12645186	      0.97921285	      0.32330194	     14.88656120	     -1.47357251	     -0.45225224	     17.96837186	      4.69077601	     -1.92448616	      0.00000000	     12.51416529	      3.62596338	      6.81264545	      7.56545576	      1.20012962	     -6.91846123	      0.00000000	    -12.74507890	      4.41733136	      9.81383972	      3.69431347	     -9.13138843	     -9.26762342	     27.02984855	    119.74817918	      4.30874462	    -18.67058170	     16.65734328	     49.55251045	    110.39777105
      0.08333330	     -1.36199617	     -3.41502070	    -28.58362977	      1.12632154	      0.97927696	      0.32428618	     14.81206551	     -1.46670885	     -0.49915854	     18.03357424	      4.69817586	     -1.94130307	      0.00000000	     12.49893020	      3.61498895	      6.82489892	      7.76278759	      1.20720163	     -6.91667357	      0.00000000	    -12.73655922	      4.37580704	      9.84760787	      3.89406200	     -9.16095976	     -9.26677831	     27.04526819	    119.74817918	      4.02759525	    -18.50769572	     16.77362601	     49.34992534	    110.42983993
      0.10000000	     -1.16708591	     -3.52601187	    -28.54716392	      1.12627475	      0.97943860	      0.32527927	     14.58315638	     -1.40662680	     -0.49441434	     18.15504724	      4.89182984	     -1.84386925	      0.00000000	     12.52980313	      3.56662196	      6.60673667	      8.33638144	      1.50907286	     -7.11685058	      0.00000000	    -12.86007945	      4.42814326	      9.63387853	      4.36393931	     -9.23295964	     -9.15109847	     26.84279467	    119.74817918	      3.88183907	    -18.25685070	     16.95185524	     48.50997356	    110.55438815
      0.11666670	     -1.16219745	     -3.73089025	    -28.45477429	      1.12626564	      0.97966178	      0.32636917	     14.35520627	     -1.22943300	     -1.01479686	     18.01349259	      4.95969994	     -1.41344871	      0.00000000	     12.76908151	      3.31785353	      6.41877022	      9.07744681	      2.07981118	     -6.54324248	      0.00000000	    -12.80682965	      4.67578848	      9.50449215	      4.81802933	     -9.57119518	     -8.30220175	     26.48079750	    119.74817918	      3.90231680	    -17.93010568	     17.43721792	     47.35445432	    111.17318777
